<svg width="13" height="20" viewBox="0 0 13 20" fill="none" xmlns="http://www.w3.org/2000/svg">
<path d="M6.5 20C4.73333 20 3.29167 19.721 2.175 19.163C1.05833 18.6043 0.5 17.8833 0.5 17C0.5 16.4167 0.741667 15.9083 1.225 15.475C1.70833 15.0417 2.375 14.7 3.225 14.45L3.8 16.35C3.51667 16.4333 3.25833 16.5377 3.025 16.663C2.79167 16.7877 2.63333 16.9 2.55 17C2.76667 17.2667 3.26667 17.5 4.05 17.7C4.83333 17.9 5.65 18 6.5 18C7.35 18 8.171 17.9 8.963 17.7C9.75433 17.5 10.2583 17.2667 10.475 17C10.3917 16.9 10.2333 16.7877 10 16.663C9.76667 16.5377 9.50833 16.4333 9.225 16.35L9.8 14.45C10.65 14.7 11.3127 15.0417 11.788 15.475C12.2627 15.9083 12.5 16.4167 12.5 17C12.5 17.8833 11.9417 18.6043 10.825 19.163C9.70833 19.721 8.26667 20 6.5 20ZM6.5 13.325C6.8 12.775 7.11667 12.2707 7.45 11.812C7.78333 11.354 8.10833 10.9167 8.425 10.5C9.04167 9.7 9.53333 8.979 9.9 8.337C10.2667 7.69567 10.45 6.9 10.45 5.95C10.45 4.85 10.0667 3.91667 9.3 3.15C8.53333 2.38333 7.6 2 6.5 2C5.4 2 4.46667 2.38333 3.7 3.15C2.93333 3.91667 2.55 4.85 2.55 5.95C2.55 6.9 2.73333 7.69567 3.1 8.337C3.46667 8.979 3.95833 9.7 4.575 10.5C4.89167 10.9167 5.21667 11.354 5.55 11.812C5.88333 12.2707 6.2 12.775 6.5 13.325ZM6.5 17C6.31667 17 6.15 16.9457 6 16.837C5.85 16.729 5.74167 16.5833 5.675 16.4C5.29167 15.2167 4.80833 14.225 4.225 13.425C3.64167 12.625 3.075 11.8583 2.525 11.125C1.99167 10.3917 1.52933 9.63333 1.138 8.85C0.746 8.06667 0.55 7.1 0.55 5.95C0.55 4.28333 1.125 2.875 2.275 1.725C3.425 0.575 4.83333 0 6.5 0C8.16667 0 9.575 0.575 10.725 1.725C11.875 2.875 12.45 4.28333 12.45 5.95C12.45 7.1 12.2583 8.06667 11.875 8.85C11.4917 9.63333 11.025 10.3917 10.475 11.125C9.94167 11.8583 9.37933 12.625 8.788 13.425C8.196 14.225 7.70833 15.2167 7.325 16.4C7.25833 16.5833 7.15 16.729 7 16.837C6.85 16.9457 6.68333 17 6.5 17ZM6.5 8.075C7.08333 8.075 7.58333 7.86667 8 7.45C8.41667 7.03333 8.625 6.53333 8.625 5.95C8.625 5.36667 8.41667 4.86667 8 4.45C7.58333 4.03333 7.08333 3.825 6.5 3.825C5.91667 3.825 5.41667 4.03333 5 4.45C4.58333 4.86667 4.375 5.36667 4.375 5.95C4.375 6.53333 4.58333 7.03333 5 7.45C5.41667 7.86667 5.91667 8.075 6.5 8.075Z" fill="#7F7F7F"/>
</svg>
